<mxfile host="app.diagrams.net" modified="2024-03-09T08:35:52.116Z" agent="Mozilla/5.0 (Windows NT 10.0; Win64; x64) AppleWebKit/537.36 (KHTML, like Gecko) Chrome/122.0.0.0 Safari/537.36" etag="eX62T24NFZtahiUz5xQy" version="24.0.3" type="device">
  <diagram name="StrÃ¡nka-1" id="Kdng2bBrpUKedUkJqB7N">
    <mxGraphModel dx="1050" dy="530" grid="1" gridSize="10" guides="1" tooltips="1" connect="1" arrows="1" fold="1" page="1" pageScale="1" pageWidth="1169" pageHeight="827" math="0" shadow="0">
      <root>
        <mxCell id="0" />
        <mxCell id="1" parent="0" />
        <mxCell id="hYX36JWZFe9LmK4qzKHg-16" style="edgeStyle=orthogonalEdgeStyle;rounded=0;orthogonalLoop=1;jettySize=auto;html=1;exitX=0;exitY=0.5;exitDx=0;exitDy=0;entryX=0;entryY=0.5;entryDx=0;entryDy=0;" edge="1" parent="1" source="hYX36JWZFe9LmK4qzKHg-1" target="hYX36JWZFe9LmK4qzKHg-3">
          <mxGeometry relative="1" as="geometry">
            <Array as="points">
              <mxPoint x="310" y="110" />
              <mxPoint x="310" y="350" />
            </Array>
          </mxGeometry>
        </mxCell>
        <mxCell id="hYX36JWZFe9LmK4qzKHg-1" value="User Interface&lt;div&gt;(S3 - cloud front)&lt;/div&gt;" style="rounded=0;whiteSpace=wrap;html=1;" vertex="1" parent="1">
          <mxGeometry x="390" y="80" width="120" height="60" as="geometry" />
        </mxCell>
        <mxCell id="hYX36JWZFe9LmK4qzKHg-15" style="edgeStyle=orthogonalEdgeStyle;rounded=0;orthogonalLoop=1;jettySize=auto;html=1;exitX=0.5;exitY=0;exitDx=0;exitDy=0;entryX=0.5;entryY=1;entryDx=0;entryDy=0;" edge="1" parent="1" source="hYX36JWZFe9LmK4qzKHg-2" target="hYX36JWZFe9LmK4qzKHg-1">
          <mxGeometry relative="1" as="geometry" />
        </mxCell>
        <mxCell id="hYX36JWZFe9LmK4qzKHg-2" value="Message queue&lt;div&gt;(Event bridge)&lt;/div&gt;" style="rounded=0;whiteSpace=wrap;html=1;" vertex="1" parent="1">
          <mxGeometry x="390" y="210" width="120" height="60" as="geometry" />
        </mxCell>
        <mxCell id="hYX36JWZFe9LmK4qzKHg-10" style="edgeStyle=orthogonalEdgeStyle;rounded=0;orthogonalLoop=1;jettySize=auto;html=1;exitX=0.5;exitY=0;exitDx=0;exitDy=0;startArrow=classic;startFill=1;" edge="1" parent="1" source="hYX36JWZFe9LmK4qzKHg-3" target="hYX36JWZFe9LmK4qzKHg-2">
          <mxGeometry relative="1" as="geometry" />
        </mxCell>
        <mxCell id="hYX36JWZFe9LmK4qzKHg-3" value="BackEnd&lt;div&gt;(lambda fce)&lt;/div&gt;" style="rounded=0;whiteSpace=wrap;html=1;" vertex="1" parent="1">
          <mxGeometry x="390" y="320" width="120" height="60" as="geometry" />
        </mxCell>
        <mxCell id="hYX36JWZFe9LmK4qzKHg-12" style="edgeStyle=orthogonalEdgeStyle;rounded=0;orthogonalLoop=1;jettySize=auto;html=1;exitX=1;exitY=0.5;exitDx=0;exitDy=0;exitPerimeter=0;startArrow=classic;startFill=1;" edge="1" parent="1" source="hYX36JWZFe9LmK4qzKHg-4" target="hYX36JWZFe9LmK4qzKHg-5">
          <mxGeometry relative="1" as="geometry" />
        </mxCell>
        <mxCell id="hYX36JWZFe9LmK4qzKHg-4" value="&lt;font style=&quot;font-size: 11px;&quot;&gt;PostgreSQL&lt;/font&gt;" style="shape=cylinder3;whiteSpace=wrap;html=1;boundedLbl=1;backgroundOutline=1;size=15;" vertex="1" parent="1">
          <mxGeometry x="585" y="310" width="60" height="80" as="geometry" />
        </mxCell>
        <mxCell id="hYX36JWZFe9LmK4qzKHg-5" value="Dock storage&lt;div&gt;(S3 bucket)&lt;/div&gt;" style="shape=cylinder3;whiteSpace=wrap;html=1;boundedLbl=1;backgroundOutline=1;size=15;" vertex="1" parent="1">
          <mxGeometry x="720" y="305" width="70" height="90" as="geometry" />
        </mxCell>
        <mxCell id="hYX36JWZFe9LmK4qzKHg-6" value="AI gen&lt;div&gt;(Service)&lt;/div&gt;" style="ellipse;shape=cloud;whiteSpace=wrap;html=1;" vertex="1" parent="1">
          <mxGeometry x="645" y="80" width="120" height="80" as="geometry" />
        </mxCell>
        <mxCell id="hYX36JWZFe9LmK4qzKHg-11" style="edgeStyle=orthogonalEdgeStyle;rounded=0;orthogonalLoop=1;jettySize=auto;html=1;exitX=1;exitY=0.5;exitDx=0;exitDy=0;entryX=0;entryY=0.5;entryDx=0;entryDy=0;entryPerimeter=0;startArrow=classic;startFill=1;" edge="1" parent="1" source="hYX36JWZFe9LmK4qzKHg-3" target="hYX36JWZFe9LmK4qzKHg-4">
          <mxGeometry relative="1" as="geometry" />
        </mxCell>
        <mxCell id="hYX36JWZFe9LmK4qzKHg-13" style="edgeStyle=orthogonalEdgeStyle;rounded=0;orthogonalLoop=1;jettySize=auto;html=1;exitX=0.75;exitY=0;exitDx=0;exitDy=0;entryX=0.55;entryY=0.95;entryDx=0;entryDy=0;entryPerimeter=0;startArrow=classic;startFill=1;" edge="1" parent="1" source="hYX36JWZFe9LmK4qzKHg-3" target="hYX36JWZFe9LmK4qzKHg-6">
          <mxGeometry relative="1" as="geometry">
            <Array as="points">
              <mxPoint x="480" y="300" />
              <mxPoint x="570" y="300" />
              <mxPoint x="570" y="240" />
              <mxPoint x="711" y="240" />
            </Array>
          </mxGeometry>
        </mxCell>
        <mxCell id="hYX36JWZFe9LmK4qzKHg-18" style="edgeStyle=orthogonalEdgeStyle;rounded=0;orthogonalLoop=1;jettySize=auto;html=1;exitX=1;exitY=0.5;exitDx=0;exitDy=0;entryX=0.07;entryY=0.4;entryDx=0;entryDy=0;entryPerimeter=0;startArrow=classic;startFill=1;" edge="1" parent="1" source="hYX36JWZFe9LmK4qzKHg-2" target="hYX36JWZFe9LmK4qzKHg-6">
          <mxGeometry relative="1" as="geometry">
            <Array as="points">
              <mxPoint x="540" y="240" />
              <mxPoint x="540" y="112" />
            </Array>
          </mxGeometry>
        </mxCell>
      </root>
    </mxGraphModel>
  </diagram>
</mxfile>
